<svg id="Calque_1" data-name="Calque 1" xmlns="http://www.w3.org/2000/svg" viewBox="0 0 841.89 595.28"><defs><style>.cls-1{fill:#fff;}</style></defs><path class="cls-1" d="M543.93,268.87a11.63,11.63,0,0,1-3,3,12.31,12.31,0,0,1-5.24,2,14.57,14.57,0,0,1-7.18-.9l-2-.77c-1-.41-1.76-.73-1.82-.76A44.25,44.25,0,0,0,481,278.35a14.34,14.34,0,0,1-2.76,2.12l-.53.29a9.89,9.89,0,0,1-6.84.58,9.1,9.1,0,0,1-2.76-1.37,9.29,9.29,0,0,1,5.74-16.82,7.15,7.15,0,0,1,2.19.47c.63.23,1.25.43,1.88.62,15.51,4.63,33.19-1.53,44.29-11.12.61-.53,1.14-1,1.54-1.38a12.86,12.86,0,0,1,1.9-1.55,13.64,13.64,0,0,1,15.31-.07C547.48,254.75,547.06,264.17,543.93,268.87Z"/><polygon class="cls-1" points="295.46 272.17 295.46 301.68 261.19 301.68 261.19 272.06 246.7 272.06 246.7 346.2 261.19 346.2 261.19 315 295.46 315 295.46 346.2 309.95 346.2 309.95 272.17 295.46 272.17"/><path class="cls-1" d="M355.11,293.32V321q0,6.57-2.86,10c-1.9,2.29-4.69,3.4-8.35,3.33a10,10,0,0,1-5.13-1.32,8.41,8.41,0,0,1-3.49-4.34,22.79,22.79,0,0,1-1.22-8.3V293.32h-14v29.93q0,8.47,2.28,13.81a15.87,15.87,0,0,0,6.71,7.88,21.45,21.45,0,0,0,10.79,2.53,17.74,17.74,0,0,0,10.47-3.12c1.94-1.35,7.42-5.56,8.82-7.7L356,346.2h13.11V293.32Z"/><path class="cls-1" d="M378.17,346.2V293.32h13.11l-3.08,9.58c1.62-2.68,7.42-7.41,9.95-8.78a17.44,17.44,0,0,1,8.47-2.07,20,20,0,0,1,10.83,2.75,15.74,15.74,0,0,1,6.4,8.46,18.83,18.83,0,0,1,6.56-8.3,16.93,16.93,0,0,1,9.84-2.91q9.3,0,14.17,5.87t4.86,18V346.2h-14V319.13a23.63,23.63,0,0,0-1.16-8.36,8.76,8.76,0,0,0-3.17-4.28,8.48,8.48,0,0,0-4.76-1.32q-5.09-.1-7.83,3.28t-2.75,10V346.2h-14V319.13a24.77,24.77,0,0,0-1.11-8.36,8.36,8.36,0,0,0-3.17-4.28,8.74,8.74,0,0,0-4.81-1.32q-5.09-.1-7.78,3.28t-2.69,10V346.2Z"/><path class="cls-1" d="M469.65,271.06m-1.38,75.14V293.32h14V346.2Z"/><path class="cls-1" d="M513.45,295.47c-3.26,1.26-8.51,4.17-10.61,7.29l3.3-9.44h-14V346.2h14V318.39a9.17,9.17,0,0,1,2.64-6.77,15.24,15.24,0,0,1,6.93-3.81,35,35,0,0,1,9.15-1.16V293.11A31.85,31.85,0,0,0,513.45,295.47Z"/><path class="cls-1" d="M537.12,268.68m-7,77.52V293.32h14V346.2Z"/><path class="cls-1" d="M573.82,347.47a29.1,29.1,0,0,1-9.52-1.53,23.64,23.64,0,0,1-7.82-4.44,20.2,20.2,0,0,1-5.29-7.14l11.95-5.5a14.62,14.62,0,0,0,4.34,4.39,11.12,11.12,0,0,0,6.34,1.85,11.64,11.64,0,0,0,5.4-1,3.13,3.13,0,0,0,1.9-2.9,3,3,0,0,0-1.53-2.81,16,16,0,0,0-4.18-1.53l-4.87-1.27a25.94,25.94,0,0,1-12-6.4,13.85,13.85,0,0,1-4.39-10.1q0-8.15,5.24-12.58t14.86-4.45a28.3,28.3,0,0,1,9.25,1.48,22.26,22.26,0,0,1,7.35,4.13,13.73,13.73,0,0,1,4.23,6.13l-11.53,5.29a6.3,6.3,0,0,0-3.59-3.44,13.54,13.54,0,0,0-5.71-1.32,6.91,6.91,0,0,0-4.39,1.22,4,4,0,0,0-1.54,3.33,2.62,2.62,0,0,0,1.48,2.27,15,15,0,0,0,4.23,1.54l6.88,1.69a19,19,0,0,1,8.3,4.07,17.49,17.49,0,0,1,6,13,13.45,13.45,0,0,1-2.81,8.41,18,18,0,0,1-7.61,5.65A28.2,28.2,0,0,1,573.82,347.47Z"/></svg>