<svg xmlns="http://www.w3.org/2000/svg" xmlns:xlink="http://www.w3.org/1999/xlink" width="58" zoomAndPan="magnify" viewBox="0 0 43.5 30.000001" height="40" preserveAspectRatio="xMidYMid meet" version="1.0"><defs><clipPath id="9d60914140"><path d="M 25 8 L 34 8 L 34 12 L 25 12 Z M 25 8 " clip-rule="nonzero"/></clipPath><clipPath id="3f942454df"><path d="M 33.742188 10.683594 C 33.660156 10.800781 33.5625 10.902344 33.441406 10.984375 C 33.28125 11.09375 33.105469 11.164062 32.914062 11.1875 C 32.664062 11.21875 32.425781 11.191406 32.191406 11.097656 L 31.988281 11.019531 C 31.886719 10.976562 31.8125 10.945312 31.804688 10.941406 C 31.0625 10.65625 30.296875 10.574219 29.511719 10.699219 C 28.726562 10.824219 28.023438 11.140625 27.402344 11.640625 C 27.320312 11.722656 27.226562 11.796875 27.125 11.855469 L 27.074219 11.886719 C 26.851562 11.992188 26.621094 12.011719 26.382812 11.945312 C 26.28125 11.914062 26.191406 11.867188 26.105469 11.804688 C 25.9375 11.683594 25.824219 11.527344 25.761719 11.328125 C 25.699219 11.132812 25.699219 10.933594 25.765625 10.738281 C 25.832031 10.542969 25.953125 10.386719 26.121094 10.269531 C 26.289062 10.152344 26.476562 10.097656 26.683594 10.101562 C 26.757812 10.109375 26.832031 10.125 26.902344 10.152344 C 26.96875 10.175781 27.03125 10.195312 27.09375 10.214844 C 28.65625 10.683594 30.4375 10.058594 31.554688 9.089844 C 31.617188 9.035156 31.671875 8.988281 31.710938 8.949219 C 31.769531 8.890625 31.832031 8.839844 31.902344 8.792969 C 32.132812 8.632812 32.390625 8.550781 32.671875 8.550781 C 32.953125 8.550781 33.210938 8.628906 33.445312 8.785156 C 34.101562 9.253906 34.058594 10.207031 33.742188 10.683594 Z M 33.742188 10.683594 " clip-rule="nonzero"/></clipPath><linearGradient x1="464.071999" gradientTransform="matrix(0.100748, 0, 0, 0.101199, -21.055597, -16.527157)" y1="264.76001" x2="547.479955" gradientUnits="userSpaceOnUse" y2="264.76001" id="e5784e8cf3"><stop stop-opacity="1" stop-color="rgb(18.399048%, 5.099487%, 95.698547%)" offset="0"/><stop stop-opacity="1" stop-color="rgb(18.556213%, 5.107117%, 95.690918%)" offset="0.015625"/><stop stop-opacity="1" stop-color="rgb(18.893433%, 5.123901%, 95.674133%)" offset="0.03125"/><stop stop-opacity="1" stop-color="rgb(19.250488%, 5.142212%, 95.655823%)" offset="0.046875"/><stop stop-opacity="1" stop-color="rgb(19.607544%, 5.160522%, 95.637512%)" offset="0.0625"/><stop stop-opacity="1" stop-color="rgb(19.9646%, 5.178833%, 95.619202%)" offset="0.078125"/><stop stop-opacity="1" stop-color="rgb(20.321655%, 5.197144%, 95.600891%)" offset="0.09375"/><stop stop-opacity="1" stop-color="rgb(20.678711%, 5.215454%, 95.582581%)" offset="0.109375"/><stop stop-opacity="1" stop-color="rgb(21.035767%, 5.233765%, 95.56427%)" offset="0.125"/><stop stop-opacity="1" stop-color="rgb(21.391296%, 5.252075%, 95.545959%)" offset="0.140625"/><stop stop-opacity="1" stop-color="rgb(21.748352%, 5.270386%, 95.529175%)" offset="0.15625"/><stop stop-opacity="1" stop-color="rgb(22.105408%, 5.288696%, 95.510864%)" offset="0.171875"/><stop stop-opacity="1" stop-color="rgb(22.462463%, 5.305481%, 95.492554%)" offset="0.1875"/><stop stop-opacity="1" stop-color="rgb(22.819519%, 5.323792%, 95.474243%)" offset="0.203125"/><stop stop-opacity="1" stop-color="rgb(23.176575%, 5.342102%, 95.455933%)" offset="0.21875"/><stop stop-opacity="1" stop-color="rgb(23.53363%, 5.360413%, 95.437622%)" offset="0.234375"/><stop stop-opacity="1" stop-color="rgb(23.88916%, 5.378723%, 95.419312%)" offset="0.25"/><stop stop-opacity="1" stop-color="rgb(24.246216%, 5.397034%, 95.401001%)" offset="0.265625"/><stop stop-opacity="1" stop-color="rgb(24.603271%, 5.415344%, 95.38269%)" offset="0.28125"/><stop stop-opacity="1" stop-color="rgb(24.960327%, 5.433655%, 95.36438%)" offset="0.296875"/><stop stop-opacity="1" stop-color="rgb(25.317383%, 5.451965%, 95.346069%)" offset="0.3125"/><stop stop-opacity="1" stop-color="rgb(25.674438%, 5.470276%, 95.327759%)" offset="0.328125"/><stop stop-opacity="1" stop-color="rgb(26.031494%, 5.488586%, 95.310974%)" offset="0.34375"/><stop stop-opacity="1" stop-color="rgb(26.38855%, 5.506897%, 95.292664%)" offset="0.359375"/><stop stop-opacity="1" stop-color="rgb(26.74408%, 5.523682%, 95.274353%)" offset="0.375"/><stop stop-opacity="1" stop-color="rgb(27.101135%, 5.541992%, 95.256042%)" offset="0.390625"/><stop stop-opacity="1" stop-color="rgb(27.458191%, 5.560303%, 95.237732%)" offset="0.40625"/><stop stop-opacity="1" stop-color="rgb(27.815247%, 5.578613%, 95.219421%)" offset="0.421875"/><stop stop-opacity="1" stop-color="rgb(28.172302%, 5.596924%, 95.201111%)" offset="0.4375"/><stop stop-opacity="1" stop-color="rgb(28.529358%, 5.615234%, 95.1828%)" offset="0.453125"/><stop stop-opacity="1" stop-color="rgb(28.886414%, 5.633545%, 95.16449%)" offset="0.46875"/><stop stop-opacity="1" stop-color="rgb(29.241943%, 5.651855%, 95.146179%)" offset="0.484375"/><stop stop-opacity="1" stop-color="rgb(29.598999%, 5.670166%, 95.127869%)" offset="0.5"/><stop stop-opacity="1" stop-color="rgb(29.956055%, 5.688477%, 95.109558%)" offset="0.515625"/><stop stop-opacity="1" stop-color="rgb(30.31311%, 5.706787%, 95.092773%)" offset="0.53125"/><stop stop-opacity="1" stop-color="rgb(30.670166%, 5.725098%, 95.074463%)" offset="0.546875"/><stop stop-opacity="1" stop-color="rgb(31.027222%, 5.741882%, 95.056152%)" offset="0.5625"/><stop stop-opacity="1" stop-color="rgb(31.384277%, 5.760193%, 95.037842%)" offset="0.578125"/><stop stop-opacity="1" stop-color="rgb(31.741333%, 5.778503%, 95.019531%)" offset="0.59375"/><stop stop-opacity="1" stop-color="rgb(32.096863%, 5.796814%, 95.001221%)" offset="0.609375"/><stop stop-opacity="1" stop-color="rgb(32.453918%, 5.815125%, 94.98291%)" offset="0.625"/><stop stop-opacity="1" stop-color="rgb(32.810974%, 5.833435%, 94.9646%)" offset="0.640625"/><stop stop-opacity="1" stop-color="rgb(33.16803%, 5.851746%, 94.946289%)" offset="0.65625"/><stop stop-opacity="1" stop-color="rgb(33.525085%, 5.870056%, 94.927979%)" offset="0.671875"/><stop stop-opacity="1" stop-color="rgb(33.882141%, 5.888367%, 94.909668%)" offset="0.6875"/><stop stop-opacity="1" stop-color="rgb(34.242249%, 5.909729%, 94.891357%)" offset="0.695312"/><stop stop-opacity="1" stop-color="rgb(34.632874%, 5.938721%, 94.871521%)" offset="0.699219"/><stop stop-opacity="1" stop-color="rgb(34.840393%, 5.955505%, 94.86084%)" offset="0.703125"/><stop stop-opacity="1" stop-color="rgb(35.047913%, 5.970764%, 94.850159%)" offset="0.707031"/><stop stop-opacity="1" stop-color="rgb(35.256958%, 5.987549%, 94.839478%)" offset="0.710938"/><stop stop-opacity="1" stop-color="rgb(35.464478%, 6.002808%, 94.828796%)" offset="0.714844"/><stop stop-opacity="1" stop-color="rgb(35.673523%, 6.019592%, 94.819641%)" offset="0.71875"/><stop stop-opacity="1" stop-color="rgb(35.881042%, 6.034851%, 94.80896%)" offset="0.722656"/><stop stop-opacity="1" stop-color="rgb(36.090088%, 6.051636%, 94.798279%)" offset="0.726563"/><stop stop-opacity="1" stop-color="rgb(36.297607%, 6.066895%, 94.787598%)" offset="0.730469"/><stop stop-opacity="1" stop-color="rgb(36.506653%, 6.083679%, 94.776917%)" offset="0.734375"/><stop stop-opacity="1" stop-color="rgb(36.714172%, 6.098938%, 94.766235%)" offset="0.738281"/><stop stop-opacity="1" stop-color="rgb(36.923218%, 6.115723%, 94.755554%)" offset="0.742188"/><stop stop-opacity="1" stop-color="rgb(37.130737%, 6.130981%, 94.744873%)" offset="0.746094"/><stop stop-opacity="1" stop-color="rgb(37.339783%, 6.14624%, 94.734192%)" offset="0.75"/><stop stop-opacity="1" stop-color="rgb(37.547302%, 6.161499%, 94.723511%)" offset="0.753906"/><stop stop-opacity="1" stop-color="rgb(37.754822%, 6.178284%, 94.71283%)" offset="0.757812"/><stop stop-opacity="1" stop-color="rgb(37.962341%, 6.193542%, 94.702148%)" offset="0.761719"/><stop stop-opacity="1" stop-color="rgb(38.171387%, 6.210327%, 94.691467%)" offset="0.765625"/><stop stop-opacity="1" stop-color="rgb(38.378906%, 6.225586%, 94.680786%)" offset="0.769531"/><stop stop-opacity="1" stop-color="rgb(38.587952%, 6.242371%, 94.670105%)" offset="0.773437"/><stop stop-opacity="1" stop-color="rgb(38.795471%, 6.257629%, 94.659424%)" offset="0.777344"/><stop stop-opacity="1" stop-color="rgb(39.004517%, 6.274414%, 94.648743%)" offset="0.78125"/><stop stop-opacity="1" stop-color="rgb(39.212036%, 6.289673%, 94.638062%)" offset="0.785156"/><stop stop-opacity="1" stop-color="rgb(39.421082%, 6.306458%, 94.62738%)" offset="0.789062"/><stop stop-opacity="1" stop-color="rgb(39.628601%, 6.321716%, 94.616699%)" offset="0.792969"/><stop stop-opacity="1" stop-color="rgb(39.837646%, 6.338501%, 94.607544%)" offset="0.796875"/><stop stop-opacity="1" stop-color="rgb(40.045166%, 6.35376%, 94.596863%)" offset="0.800781"/><stop stop-opacity="1" stop-color="rgb(40.254211%, 6.369019%, 94.586182%)" offset="0.804688"/><stop stop-opacity="1" stop-color="rgb(40.461731%, 6.384277%, 94.5755%)" offset="0.808594"/><stop stop-opacity="1" stop-color="rgb(40.66925%, 6.401062%, 94.564819%)" offset="0.8125"/><stop stop-opacity="1" stop-color="rgb(40.87677%, 6.416321%, 94.554138%)" offset="0.816406"/><stop stop-opacity="1" stop-color="rgb(41.085815%, 6.433105%, 94.543457%)" offset="0.820312"/><stop stop-opacity="1" stop-color="rgb(41.293335%, 6.448364%, 94.532776%)" offset="0.824219"/><stop stop-opacity="1" stop-color="rgb(41.50238%, 6.465149%, 94.522095%)" offset="0.828125"/><stop stop-opacity="1" stop-color="rgb(41.7099%, 6.480408%, 94.511414%)" offset="0.832031"/><stop stop-opacity="1" stop-color="rgb(41.918945%, 6.497192%, 94.500732%)" offset="0.835938"/><stop stop-opacity="1" stop-color="rgb(42.126465%, 6.512451%, 94.490051%)" offset="0.839844"/><stop stop-opacity="1" stop-color="rgb(42.33551%, 6.529236%, 94.47937%)" offset="0.84375"/><stop stop-opacity="1" stop-color="rgb(42.54303%, 6.544495%, 94.468689%)" offset="0.847656"/><stop stop-opacity="1" stop-color="rgb(42.752075%, 6.561279%, 94.458008%)" offset="0.851562"/><stop stop-opacity="1" stop-color="rgb(42.959595%, 6.576538%, 94.447327%)" offset="0.855469"/><stop stop-opacity="1" stop-color="rgb(43.167114%, 6.591797%, 94.436646%)" offset="0.859375"/><stop stop-opacity="1" stop-color="rgb(43.374634%, 6.607056%, 94.425964%)" offset="0.863281"/><stop stop-opacity="1" stop-color="rgb(43.583679%, 6.62384%, 94.415283%)" offset="0.867188"/><stop stop-opacity="1" stop-color="rgb(43.791199%, 6.639099%, 94.404602%)" offset="0.871094"/><stop stop-opacity="1" stop-color="rgb(44.000244%, 6.655884%, 94.395447%)" offset="0.875"/><stop stop-opacity="1" stop-color="rgb(44.207764%, 6.671143%, 94.384766%)" offset="0.878906"/><stop stop-opacity="1" stop-color="rgb(44.416809%, 6.687927%, 94.374084%)" offset="0.882813"/><stop stop-opacity="1" stop-color="rgb(44.624329%, 6.703186%, 94.363403%)" offset="0.886719"/><stop stop-opacity="1" stop-color="rgb(44.833374%, 6.719971%, 94.352722%)" offset="0.890625"/><stop stop-opacity="1" stop-color="rgb(45.040894%, 6.735229%, 94.342041%)" offset="0.894531"/><stop stop-opacity="1" stop-color="rgb(45.249939%, 6.752014%, 94.33136%)" offset="0.898438"/><stop stop-opacity="1" stop-color="rgb(45.457458%, 6.767273%, 94.320679%)" offset="0.902344"/><stop stop-opacity="1" stop-color="rgb(45.666504%, 6.784058%, 94.309998%)" offset="0.90625"/><stop stop-opacity="1" stop-color="rgb(45.874023%, 6.799316%, 94.299316%)" offset="0.910156"/><stop stop-opacity="1" stop-color="rgb(46.081543%, 6.814575%, 94.288635%)" offset="0.914063"/><stop stop-opacity="1" stop-color="rgb(46.289062%, 6.829834%, 94.277954%)" offset="0.917969"/><stop stop-opacity="1" stop-color="rgb(46.498108%, 6.846619%, 94.267273%)" offset="0.921875"/><stop stop-opacity="1" stop-color="rgb(46.705627%, 6.861877%, 94.256592%)" offset="0.925781"/><stop stop-opacity="1" stop-color="rgb(46.914673%, 6.878662%, 94.245911%)" offset="0.929688"/><stop stop-opacity="1" stop-color="rgb(47.122192%, 6.893921%, 94.235229%)" offset="0.933594"/><stop stop-opacity="1" stop-color="rgb(47.331238%, 6.910706%, 94.224548%)" offset="0.9375"/><stop stop-opacity="1" stop-color="rgb(47.538757%, 6.925964%, 94.213867%)" offset="0.941406"/><stop stop-opacity="1" stop-color="rgb(47.747803%, 6.942749%, 94.203186%)" offset="0.945312"/><stop stop-opacity="1" stop-color="rgb(47.955322%, 6.958008%, 94.192505%)" offset="0.949219"/><stop stop-opacity="1" stop-color="rgb(48.164368%, 6.974792%, 94.181824%)" offset="0.953125"/><stop stop-opacity="1" stop-color="rgb(48.371887%, 6.990051%, 94.171143%)" offset="0.957031"/><stop stop-opacity="1" stop-color="rgb(48.579407%, 7.00531%, 94.161987%)" offset="0.960938"/><stop stop-opacity="1" stop-color="rgb(48.786926%, 7.020569%, 94.151306%)" offset="0.964844"/><stop stop-opacity="1" stop-color="rgb(48.995972%, 7.037354%, 94.140625%)" offset="0.96875"/><stop stop-opacity="1" stop-color="rgb(49.203491%, 7.052612%, 94.129944%)" offset="0.972656"/><stop stop-opacity="1" stop-color="rgb(49.412537%, 7.069397%, 94.119263%)" offset="0.976562"/><stop stop-opacity="1" stop-color="rgb(49.604797%, 7.084656%, 94.108582%)" offset="0.984375"/><stop stop-opacity="1" stop-color="rgb(49.798584%, 7.099915%, 94.099426%)" offset="1"/></linearGradient></defs><g clip-path="url(#9d60914140)"><g clip-path="url(#3f942454df)"><path fill="url(#e5784e8cf3)" d="M 25.699219 8.550781 L 25.699219 12.011719 L 34.101562 12.011719 L 34.101562 8.550781 Z M 25.699219 8.550781 " fill-rule="nonzero"/></g></g><path fill="#ffffff" d="M 8.710938 11.015625 L 8.710938 14.003906 L 5.257812 14.003906 L 5.257812 11.003906 L 3.800781 11.003906 L 3.800781 18.507812 L 5.257812 18.507812 L 5.257812 15.351562 L 8.710938 15.351562 L 8.710938 18.507812 L 10.171875 18.507812 L 10.171875 11.015625 Z M 8.710938 11.015625 " fill-opacity="1" fill-rule="nonzero"/><path fill="#ffffff" d="M 14.722656 13.15625 L 14.722656 15.957031 C 14.722656 16.402344 14.625 16.738281 14.433594 16.96875 C 14.242188 17.203125 13.960938 17.3125 13.589844 17.308594 C 13.40625 17.308594 13.234375 17.265625 13.074219 17.171875 C 12.90625 17.066406 12.789062 16.921875 12.722656 16.734375 C 12.628906 16.460938 12.589844 16.183594 12.601562 15.894531 L 12.601562 13.15625 L 11.191406 13.15625 L 11.191406 16.183594 C 11.191406 16.757812 11.265625 17.222656 11.417969 17.582031 C 11.554688 17.925781 11.777344 18.191406 12.09375 18.378906 C 12.433594 18.5625 12.796875 18.648438 13.183594 18.636719 C 13.566406 18.644531 13.917969 18.539062 14.238281 18.320312 C 14.433594 18.183594 14.984375 17.757812 15.125 17.542969 L 14.808594 18.507812 L 16.132812 18.507812 L 16.132812 13.15625 Z M 14.722656 13.15625 " fill-opacity="1" fill-rule="nonzero"/><path fill="#ffffff" d="M 17.042969 18.507812 L 17.042969 13.15625 L 18.363281 13.15625 L 18.054688 14.125 C 18.21875 13.855469 18.800781 13.375 19.058594 13.238281 C 19.324219 13.09375 19.609375 13.023438 19.910156 13.027344 C 20.300781 13.015625 20.664062 13.105469 21 13.304688 C 21.316406 13.515625 21.53125 13.800781 21.644531 14.164062 C 21.785156 13.816406 22.003906 13.539062 22.308594 13.324219 C 22.605469 13.117188 22.9375 13.019531 23.296875 13.027344 C 23.921875 13.027344 24.398438 13.226562 24.726562 13.621094 C 25.054688 14.019531 25.214844 14.625 25.214844 15.445312 L 25.214844 18.507812 L 23.804688 18.507812 L 23.804688 15.769531 C 23.816406 15.480469 23.777344 15.199219 23.6875 14.921875 C 23.628906 14.742188 23.519531 14.601562 23.367188 14.488281 C 23.222656 14.394531 23.0625 14.351562 22.890625 14.355469 C 22.546875 14.347656 22.285156 14.460938 22.101562 14.6875 C 21.917969 14.914062 21.824219 15.253906 21.824219 15.699219 L 21.824219 18.507812 L 20.414062 18.507812 L 20.414062 15.769531 C 20.425781 15.480469 20.386719 15.199219 20.300781 14.921875 C 20.242188 14.742188 20.136719 14.597656 19.980469 14.488281 C 19.832031 14.398438 19.671875 14.351562 19.496094 14.355469 C 19.15625 14.347656 18.894531 14.460938 18.714844 14.6875 C 18.53125 14.914062 18.441406 15.253906 18.441406 15.699219 L 18.441406 18.507812 Z M 17.042969 18.507812 " fill-opacity="1" fill-rule="nonzero"/><path fill="#ffffff" d="M 26.121094 13.15625 L 27.53125 13.15625 L 27.53125 18.507812 L 26.121094 18.507812 Z M 26.121094 13.15625 " fill-opacity="1" fill-rule="nonzero"/><path fill="#ffffff" d="M 30.671875 13.375 C 30.34375 13.5 29.816406 13.796875 29.605469 14.113281 L 29.9375 13.15625 L 28.527344 13.15625 L 28.527344 18.507812 L 29.9375 18.507812 L 29.9375 15.695312 C 29.925781 15.425781 30.015625 15.199219 30.203125 15.007812 C 30.402344 14.816406 30.632812 14.6875 30.902344 14.621094 C 31.203125 14.542969 31.511719 14.503906 31.824219 14.503906 L 31.824219 13.136719 C 31.425781 13.144531 31.042969 13.222656 30.671875 13.375 Z M 30.671875 13.375 " fill-opacity="1" fill-rule="nonzero"/><path fill="#ffffff" d="M 32.351562 18.507812 L 32.351562 13.15625 L 33.761719 13.15625 L 33.761719 18.507812 Z M 32.351562 18.507812 " fill-opacity="1" fill-rule="nonzero"/><path fill="#ffffff" d="M 36.753906 18.636719 C 36.425781 18.640625 36.105469 18.585938 35.796875 18.480469 C 35.503906 18.382812 35.242188 18.234375 35.007812 18.03125 C 34.777344 17.832031 34.597656 17.589844 34.476562 17.308594 L 35.679688 16.753906 C 35.792969 16.933594 35.9375 17.082031 36.117188 17.199219 C 36.308594 17.328125 36.523438 17.390625 36.753906 17.382812 C 36.945312 17.394531 37.125 17.363281 37.300781 17.285156 C 37.429688 17.226562 37.492188 17.128906 37.492188 16.988281 C 37.5 16.863281 37.449219 16.769531 37.335938 16.707031 C 37.203125 16.632812 37.0625 16.582031 36.914062 16.550781 L 36.425781 16.421875 C 35.964844 16.316406 35.5625 16.101562 35.214844 15.773438 C 34.921875 15.5 34.773438 15.15625 34.773438 14.753906 C 34.773438 14.203125 34.949219 13.777344 35.300781 13.480469 C 35.652344 13.179688 36.152344 13.03125 36.796875 13.027344 C 37.117188 13.027344 37.429688 13.078125 37.730469 13.179688 C 38.003906 13.269531 38.25 13.410156 38.472656 13.597656 C 38.671875 13.761719 38.8125 13.96875 38.898438 14.21875 L 37.734375 14.753906 C 37.664062 14.585938 37.542969 14.46875 37.375 14.40625 C 37.191406 14.316406 37 14.273438 36.796875 14.269531 C 36.636719 14.261719 36.488281 14.300781 36.355469 14.394531 C 36.246094 14.480469 36.195312 14.59375 36.203125 14.730469 C 36.203125 14.839844 36.253906 14.914062 36.351562 14.960938 C 36.484375 15.035156 36.625 15.085938 36.777344 15.117188 L 37.46875 15.289062 C 37.78125 15.355469 38.0625 15.492188 38.304688 15.699219 C 38.703125 16.046875 38.90625 16.484375 38.910156 17.015625 C 38.914062 17.332031 38.820312 17.617188 38.628906 17.867188 C 38.421875 18.128906 38.167969 18.316406 37.859375 18.4375 C 37.503906 18.578125 37.136719 18.644531 36.753906 18.636719 Z M 36.753906 18.636719 " fill-opacity="1" fill-rule="nonzero"/></svg>